# xmcd
#
# Track frame offsets: 
#        150
#        14422
#        34910
#        53925
#        79427
#        101447
#        121312
#        137927
#        156782
#        174312
#
# Disc length: 2495 seconds
#
# Revision: 2
# Processed by: cddbd v1.5.2PL0 Copyright (c) Steve Scherf et al.
# Submitted via: ExactAudioCopy v1.0b3
#
DISCID=8209bd0a
DTITLE=Various Artist - Bem Em La Bien Rong
DYEAR=1995
DGENRE=Pop
TTITLE0=Loan Chau, Thanh Truc, Shayla - Quen Di
TTITLE1=Loan Chau - Ben Em La Bien Rong
TTITLE2=Sy Dan - Con Tim Mu Loa
TTITLE3=Loan Chau - Duong Xua
TTITLE4=Lam Nhat Tien, Gia Huy, Le Tam, Duy Linh - Tam Hon co Don
TTITLE5=Loan Chau - Tam Tro
TTITLE6=Le Tam - Ve Voi Yeu Thuong
TTITLE7=Loan Chau - Khi Chuyen Tinh Da Cuoi
TTITLE8=Lam Nhat Tien - Nhung Loi Doi Gian
TTITLE9=Gia Huy - Tinh La Soi To
EXTD=
EXTT0=
EXTT1=
EXTT2=
EXTT3=
EXTT4=
EXTT5=
EXTT6=
EXTT7=
EXTT8=
EXTT9=
PLAYORDER=
